Naruto_Shippuuden_273 Eng Subbed BZINGAZ in mkv format 60 mb size. 

Download**Enjoy**Seed

Naruto Shippuuden 273 mkv 60 mb Bzingaz.mkv


Video
ID                               : 1
Format                           : AVC
Format/Info                      : Advanced Video Codec
Format profile                   : High@L3.1
Format settings, CABAC           : Yes
Format settings, ReFrames        : 8 frames
Codec ID                         : V_MPEG4/ISO/AVC
Duration                         : 23mn 9s
Bit rate                         : 305 Kbps
Width                            : 848 pixels
Height                           : 480 pixels
Display aspect ratio             : 16:9
Frame rate mode                  : Variable
Frame rate                       : 23.976 fps
Color space                      : YUV
Chroma subsampling               : 4:2:0
Bit depth                        : 8 bits
Scan type                        : Progressive
Bits/(Pixel*Frame)               : 0.031
Stream size                      : 49.4 MiB (84%)
Writing library                  : x264 core 120

Audio
ID                               : 2
Format                           : Vorbis
Format settings, Floor           : 1
Codec ID                         : A_VORBIS
Duration                         : 23mn 9s
Bit rate                         : 48.0 Kbps
Channel(s)                       : 2 channels
Sampling rate                    : 44.1 KHz
Compression mode                 : Lossy
Stream size                      : 7.95 MiB (14%)
Writing library                  : aoTuV 20110424 (UTC 2011-04-24)
Language                         : un

Text
ID                               : 3
Format                           : SSA
Codec ID                         : S_TEXT/SSA
Codec ID/Info                    : Sub Station Alpha
Compression mode                 : Lossless
